# xmcd database file
#
# Track frame offsets:
# 150
# 21918
# 34846
# 52175
# 67526
# 86861
# 103031
# 118113
# 137731
# 149711
# 165398
# 180428
# 197463
# 214517
# 229768
#
# Disc length: 3279 seconds
#
# Revision: 0
# Processed by: cddbd v1.5.1PL0 Copyright (c) Steve Scherf et al.
# Submitted via: CD-Runner 2003.06
#
DISCID=d00ccd0f
DTITLE=Kenny Rogers - Always and Forever Disk 1
DYEAR=1999
DGENRE=Country
TTITLE0=Have I Told You Lately That I Love You
TTITLE1=As Time Goes By
TTITLE2=Endless Love
TTITLE3=Unforgettable
TTITLE4=I Can Have Eyes For You
TTITLE5=Evergreen
TTITLE6=Misty
TTITLE7=She Believes In Me
TTITLE8=Always
TTITLE9=When I Fall In Love
TTITLE10=Crazy
TTITLE11=When A Man Loves A Woman
TTITLE12=You Decorated My Life
TTITLE13=I Can't Help Falling In Love
TTITLE14=The Wind Beneath My Wings
EXTD=
EXTT0=
EXTT1=
EXTT2=
EXTT3=
EXTT4=
EXTT5=
EXTT6=
EXTT7=
EXTT8=
EXTT9=
EXTT10=
EXTT11=
EXTT12=
EXTT13=
EXTT14=
PLAYORDER=
